<svg width="46" height="43" viewBox="0 0 46 43" fill="none" xmlns="http://www.w3.org/2000/svg">
<path fill-rule="evenodd" clip-rule="evenodd" d="M24.0753 32.7353L24.0735 32.7793L24.0755 32.8234C24.105 33.4631 23.4619 34.1544 22.6973 34.1544C21.9246 34.1544 21.2617 33.4915 21.2617 32.7188C21.2617 31.9461 21.9246 31.2832 22.6973 31.2832C23.4719 31.2832 24.1096 31.9189 24.0753 32.7353Z" fill="#1A1A1A" fill-opacity="0.32"/>
<path fill-rule="evenodd" clip-rule="evenodd" d="M44.3934 30.9974C45.7326 33.3153 45.7261 36.0801 44.3745 38.4132C43.0121 40.7672 40.6023 42.1622 37.9135 42.1622H7.43937C4.75582 42.1622 2.36647 40.7824 1.02572 38.479C-0.332533 36.1494 -0.342511 33.3651 0.99977 31.0146L1.00084 31.0127L16.2746 4.5662L16.2767 4.56256C17.6087 2.23364 20.0054 0.837891 22.7057 0.837891C25.4072 0.837891 27.8018 2.22483 29.1331 4.56957L44.3934 30.9974ZM42.7924 37.5067L42.7934 37.5049C43.8053 35.7517 43.8238 33.6565 42.8233 31.9177L27.5589 5.48007L27.5576 5.47774C26.5518 3.71664 24.731 2.6569 22.7057 2.6569C20.6734 2.6569 18.8609 3.70441 17.8537 5.46806L17.8524 5.47033L2.57912 31.9064L2.57747 31.9092C1.56126 33.6817 1.57441 35.7964 2.58905 37.5543C3.59859 39.3002 5.42187 40.3334 7.42963 40.3334H37.9037C39.9388 40.3334 41.7673 39.2741 42.7924 37.5067Z" fill="#1A1A1A" fill-opacity="0.32"/>
<path fill-rule="evenodd" clip-rule="evenodd" d="M20.303 17.1483C20.2997 17.1001 20.2964 17.052 20.293 17.0038L20.293 17.0031C20.2963 17.0515 20.2997 17.0999 20.303 17.1483ZM21.2905 16.9324C21.2647 16.5599 21.2387 16.1837 21.2104 15.8091C21.2225 14.9481 21.688 14.3497 22.3425 14.1522C23.0324 14.0004 23.6952 14.3253 23.9906 14.9607C24.0846 15.1865 24.1281 15.427 24.13 15.7527C24.1014 16.3417 24.0613 16.9324 24.0203 17.5343L24.02 17.5392C23.9789 18.1434 23.937 18.7591 23.9073 19.3764C23.854 20.313 23.7981 21.2498 23.7422 22.1881L23.7421 22.1898L23.7421 22.1906L23.7419 22.1942C23.6863 23.1265 23.6307 24.0602 23.5774 24.9942C23.5166 25.644 23.5163 26.2309 23.5163 26.8146C23.4835 27.2978 23.1252 27.6159 22.6945 27.6159C22.2276 27.6159 21.8986 27.3052 21.871 26.8435C21.7882 25.3774 21.7054 23.926 21.6226 22.4749L21.6221 22.4668C21.5395 21.0178 21.4568 19.5692 21.3742 18.106L21.3736 18.0963L21.3729 18.0866C21.344 17.7057 21.3174 17.3219 21.2906 16.934L21.2905 16.9324Z" fill="#1A1A1A" fill-opacity="0.32"/>
</svg>
